<svg xmlns="http://www.w3.org/2000/svg">
      <symbol id="icon-floppy" viewBox="0 0 21 21">
        <path
          fill="currentColor"
          d="
          M0 0h1.6154v1.6154H0zM0 1.6152h1.6154v1.6154H0zM0 3.2305h1.6154v1.6154H0z
          M0 4.8457h1.6154v1.6154H0zM0 6.4619h1.6154v1.6154H0zM0 8.0771h1.6154v1.6154H0z
          M0 9.6924h1.6154v1.6154H0zM0 11.3076h1.6154v1.6154H0zM0 12.9229h1.6154v1.6154H0z
          M0 14.5381h1.6154v1.6154H0zM0 16.1543h1.6154v1.6154H0zM0 17.7695h1.6154v1.6154H0z
          M0 19.3848h1.6154v1.6154H0zM17.7693 0v1.6154h-1.6154V0zM16.1538 0v1.6154h-1.6154V0z
          M14.5385 0v1.6154h-1.6154V0zM12.9231 0v1.6154h-1.6154V0zM11.3077 0v1.6154H9.6923V0z
          M9.6923 0v1.6154H8.0769V0zM8.0769 0v1.6154H6.4615V0zM6.4615 0v1.6154H4.8462V0z
          M4.8462 0v1.6154H3.2308V0zM3.2307 0v1.6154H1.6153V0zM19.3846 1.6152v1.6154h-1.6154V1.6152z
          M4.8462 3.2305v1.6154H3.2308V3.2305zM4.8462 1.6152v1.6154H3.2308V1.6152z
          M4.8462 4.8457v1.6154H3.2308V4.8457zM16.1538 3.2305v1.6154h-1.6154V3.2305z
          M16.1538 1.6152v1.6154h-1.6154V1.6152zM16.1538 4.8457v1.6154h-1.6154V4.8457z
          M12.923 3.2305v1.6154h-1.6153V3.2305zM12.9231 1.6152v1.6154h-1.6154V1.6152z
          M12.9231 4.8457v1.6154h-1.6154V4.8457zM16.1538 6.462v1.6153h-1.6154V6.462z
          M14.5385 6.462v1.6153h-1.6154V6.462zM12.9231 6.462v1.6153h-1.6154V6.462z
          M11.3077 6.462v1.6153H9.6923V6.462zM9.6923 6.462v1.6153H8.0769V6.462z
          M8.077 6.462v1.6153H6.4614V6.462zM6.4616 6.4619v1.6154H4.8462V6.4619z
          M4.8462 6.462v1.6153H3.2308V6.462zM17.7693 11.3076v1.6154h-1.6154v-1.6154z
          M16.1538 11.3076v1.6154h-1.6154v-1.6154zM14.5385 11.3076v1.6154h-1.6154v-1.6154z
          M12.9231 11.3076v1.6154h-1.6154v-1.6154zM11.3077 11.3076v1.6154H9.6923v-1.6154z
          M9.6923 11.3076v1.6154H8.0769v-1.6154zM8.0769 11.3076v1.6154H6.4615v-1.6154z
          M6.4615 11.3075v1.6155H4.8461v-1.6155zM4.8462 11.3076v1.6154H3.2308v-1.6154z
          M17.7693 12.9229v1.6154h-1.6154v-1.6154zM4.8462 12.923v1.6153H3.2308V12.923z
          M17.7693 14.5381v1.6154h-1.6154v-1.6154zM4.8462 14.5381v1.6154H3.2308v-1.6154z
          M17.7693 16.1543v1.6154h-1.6154v-1.6154zM4.8462 16.1543v1.6154H3.2308v-1.6154z
          M4.8462 17.7695v1.6154H3.2308v-1.6154zM17.7693 17.7695v1.6154h-1.6154v-1.6154z
          M19.3846 19.3848v1.6154h-1.6154v-1.6154zM17.7693 19.3848v1.6154h-1.6154v-1.6154z
          M16.1538 19.3848v1.6154h-1.6154v-1.6154zM14.5385 19.3848v1.6154h-1.6154v-1.6154z
          M12.9231 19.3848v1.6154h-1.6154v-1.6154zM11.3077 19.3848v1.6154H9.6923v-1.6154z
          M9.6923 19.3848v1.6154H8.0769v-1.6154zM8.0769 19.3848v1.6154H6.4615v-1.6154z
          M6.4615 19.3847v1.6154H4.8461v-1.6154zM4.8462 19.3848v1.6154H3.2308v-1.6154z
          M3.2307 19.3848v1.6154H1.6153v-1.6154zM21 21h-1.6154v-1.6154H21z
          M21 19.3848h-1.6154v-1.6154H21zM21 17.7695h-1.6154v-1.6154H21z
          M21 16.1543h-1.6154v-1.6154H21zM21 14.5381h-1.6154v-1.6154H21z
          M21 12.9229h-1.6154v-1.6154H21zM21 11.3076h-1.6154V9.6922H21z
          M21 9.6924h-1.6154V8.077H21zM21 8.0772h-1.6154V6.4618H21z
          M21 6.462h-1.6154V4.8464H21zM21 4.8457h-1.6154V3.2303H21z"
        />
      </symbol>
    </svg>